<svg xmlns="http://www.w3.org/2000/svg" id="graphic" fill="currentColor" width="774.84375" height="486.90234375" font-family="Lora"><g class="facets"><g class="fl-facets"><g class="fl-facet" transform="translate(3.5, 0)" opacity="1"><rect class="fl-facet-rect" width="771.34375" height="486.90234375" fill="none"/><rect class="fl-facet-primary-rect" width="771.34375" height="486.90234375" y="0" fill="none"/><g class="fl-facet-title"><rect class="fl-facet-title-bg" height="0" width="0" fill="rgb(238, 238, 238)" x="0" opacity="0"/><text class="fl-facet-title-text" font-size="14" font-weight="600" dx="0" dy="14.700000000000001" x="0" opacity="0"/></g><g class="fl-facet-primary" transform="translate(0, 0)"><g class="fl-chart"><rect class="fl-chart-debug-rectangle" x="0" y="0" style="stroke-width: 1px; fill: none; display: none; stroke: red;" width="771.34375" height="486.90234375"/><clipPath class="fl-data-clip-path" id="fl-chart-layout-1-clip-path"><rect x="0" y="3.5" width="767.84375" height="479.90234375"/></clipPath><clipPath class="fl-grid-clip-path" id="fl-chart-layout-1-grid-clip-path"><rect x="-1.2499999503294648" y="2.2500000496705352" width="770.343749900659" height="482.4023436506589"/></clipPath><g class="fl-chart-background"><rect class="fl-chart-fill" x="0" y="3.5" width="767.84375" height="479.90234375" fill="none"/><image class="fl-chart-image" x="0" y="3.5" width="767.84375" height="479.90234375" preserveAspectRatio="none"/><rect class="fl-chart-interaction" x="0" y="3.5" width="767.84375" height="479.90234375" style="opacity: 0;"/></g><g class="fl-data-background" clip-path="url(#fl-chart-layout-1-clip-path)"/><g class="fl-gridlines" clip-path="url(#fl-chart-layout-1-grid-clip-path)" style="pointer-events: none;"><g class="fl-gridlines-vertical"/><g class="fl-gridlines-horizontal"/></g><g class="fl-axes"><g class="fl-x-axes"><g class="fl-axis fl-x-axis fl-bottom-axis"><g class="fl-axis-line"/><g class="fl-axis-ticks"/><g class="fl-axis-title"/></g><g class="fl-axis fl-x-axis fl-top-axis"><g class="fl-axis-line"/><g class="fl-axis-ticks"/><g class="fl-axis-title"/></g></g><g class="fl-y-axes"><g class="fl-axis fl-y-axis fl-left-axis"><g class="fl-axis-line"/><g class="fl-axis-ticks"/><g class="fl-axis-title"/></g><g class="fl-axis fl-y-axis fl-right-axis"><g class="fl-axis-line"/><g class="fl-axis-ticks"/><g class="fl-axis-title"/></g></g></g><g class="fl-data-foreground" clip-path="url(#fl-chart-layout-1-clip-path)"/></g></g></g></g></g><g class="annotations below"/><g id="areas"><g class="series" pointer-events="none"><path class="area" transform="translate(3.5,0)" fill-opacity="0.7" fill="#d7a12d" clip-path="url(#clip-0-0)" clip-path-id="0-0" d="M0,483.40234375C31.997869253365277,483.40234375,63.99573850673055,483.40234375,95.99360776009583,483.40234375C127.98271767339722,483.40234375,159.97182758669862,483.40234375,191.9609375,483.40234375C223.95880675336528,483.40234375,255.95667600673053,483.40234375,287.9545452600958,483.40234375C319.9436551733972,483.40234375,351.9327650866986,483.40234375,383.921875,483.40234375C415.91974425336525,483.40234375,447.91761350673056,483.40234375,479.9154827600958,483.40234375C511.9045926733972,483.40234375,543.8937025866986,483.40234375,575.8828125,483.40234375C607.8806817533653,483.40234375,639.8785510067306,483.40234375,671.8764202600959,483.40234375C703.8655301733972,483.40234375,735.8546400866986,483.40234375,767.84375,483.40234375L767.84375,70.77705887345421C735.8546400866986,70.67363299407084,703.8655301733972,70.57020711468746,671.8764202600959,70.15650359715399C639.8785510067306,69.74268679826302,607.8806817533653,59.10691893265342,575.8828125,59.10691893265342C543.8937025866986,59.10691893265342,511.9045926733972,74.88503947492164,479.9154827600958,90.54397555131418C447.91761350673056,106.20719939771668,415.91974425336525,132.23307750043043,383.921875,153.0819101354185C351.9327650866986,173.92503545241178,319.9436551733972,215.61984471952286,287.9545452600958,215.61984471952286C255.95667600673053,215.61984471952286,223.95880675336528,185.34715465881698,191.9609375,185.34715465881698C159.97182758669862,185.34715465881698,127.98271767339722,200.13644041789954,95.99360776009583,212.15088050000278C63.99573850673055,224.16861040688207,31.997869253365277,240.80866787213105,0,257.44872533738004Z"/></g><g class="series" pointer-events="none"><path class="area" transform="translate(3.5,0)" fill-opacity="0.7" fill="#d6614f" clip-path="url(#clip-0-1)" clip-path-id="0-1" d="M0,483.40234375C31.997869253365277,483.40234375,63.99573850673055,483.40234375,95.99360776009583,483.40234375C127.98271767339722,483.40234375,159.97182758669862,483.40234375,191.9609375,483.40234375C223.95880675336528,483.40234375,255.95667600673053,483.40234375,287.9545452600958,483.40234375C319.9436551733972,483.40234375,351.9327650866986,483.40234375,383.921875,483.40234375C415.91974425336525,483.40234375,447.91761350673056,483.40234375,479.9154827600958,483.40234375C511.9045926733972,483.40234375,543.8937025866986,483.40234375,575.8828125,483.40234375C607.8806817533653,483.40234375,639.8785510067306,483.40234375,671.8764202600959,483.40234375C703.8655301733972,483.40234375,735.8546400866986,483.40234375,767.84375,483.40234375L767.84375,37.53636868536825C735.8546400866986,32.3260070075314,703.8655301733972,27.11564532969456,671.8764202600959,24.077669593334203C639.8785510067306,21.03886199067145,607.8806817533653,19.3083983872098,575.8828125,19.3083983872098C543.8937025866986,19.3083983872098,511.9045926733972,37.7618740320173,479.9154827600958,55.78276257161823C447.91761350673056,73.80858563710622,415.91974425336525,103.56309379813446,383.921875,127.45816666878065C351.9327650866986,151.34669832046418,319.9436551733972,199.13357076594306,287.9545452600958,199.13357076594306C255.95667600673053,199.13357076594306,223.95880675336528,173.62411124344587,191.9609375,173.62411124344587C159.97182758669862,173.62411124344587,127.98271767339722,194.55183527288403,95.99360776009583,206.60844747177734C63.99573850673055,218.66836104312378,31.997869253365277,232.32189717994214,0,245.97543331676053Z"/></g><g class="series" pointer-events="none"><path class="area" transform="translate(3.5,0)" fill-opacity="0.7" fill="#a15517" clip-path="url(#clip-0-2)" clip-path-id="0-2" d="M0,483.40234375C31.997869253365277,483.40234375,63.99573850673055,483.40234375,95.99360776009583,483.40234375C127.98271767339722,483.40234375,159.97182758669862,483.40234375,191.9609375,483.40234375C223.95880675336528,483.40234375,255.95667600673053,483.40234375,287.9545452600958,483.40234375C319.9436551733972,483.40234375,351.9327650866986,483.40234375,383.921875,483.40234375C415.91974425336525,483.40234375,447.91761350673056,483.40234375,479.9154827600958,483.40234375C511.9045926733972,483.40234375,543.8937025866986,483.40234375,575.8828125,483.40234375C607.8806817533653,483.40234375,639.8785510067306,483.40234375,671.8764202600959,483.40234375C703.8655301733972,483.40234375,735.8546400866986,483.40234375,767.84375,483.40234375L767.84375,312.4157604469364C735.8546400866986,289.47147729228493,703.8655301733972,266.5271941376335,671.8764202600959,251.4017539043582C639.8785510067306,236.27217198427206,607.8806817533653,221.6592590617801,575.8828125,221.6592590617801C543.8937025866986,221.6592590617801,511.9045926733972,243.63349727244577,479.9154827600958,253.76266241569198C447.91761350673056,263.8946011528986,415.91974425336525,272.8806657118686,383.921875,282.44163086587054C351.9327650866986,291.9999787285629,319.9436551733972,311.12059931604915,287.9545452600958,311.12059931604915C255.95667600673053,311.12059931604915,223.95880675336528,293.5631108620727,191.9609375,285.2461789972684C159.97182758669862,276.9315238726406,127.98271767339722,261.2253327368554,95.99360776009583,261.2253327368554C63.99573850673055,261.2253327368554,31.997869253365277,299.72356775418524,0,338.22180277151506Z"/></g></g><g id="lines"><g class="series"><clipPath id="clip-0-0"><rect width="767.84375" x="0" y="0.6999999999999997" height="485.50234375"/></clipPath><path class="line" opacity="1" pointer-events="none" fill="none" stroke="#d7a12d" stroke-width="2.8000000000000003" transform="translate(3.5,0)" clip-path="url(#clip-0-0)" clip-path-id="0-0" d="M0,257.44872533738004C31.997869253365277,240.80866787213105,63.99573850673055,224.16861040688207,95.99360776009583,212.15088050000278C127.98271767339722,200.13644041789954,159.97182758669862,185.34715465881698,191.9609375,185.34715465881698C223.95880675336528,185.34715465881698,255.95667600673053,215.61984471952286,287.9545452600958,215.61984471952286C319.9436551733972,215.61984471952286,351.9327650866986,173.92503545241178,383.921875,153.0819101354185C415.91974425336525,132.23307750043043,447.91761350673056,106.20719939771668,479.9154827600958,90.54397555131418C511.9045926733972,74.88503947492164,543.8937025866986,59.10691893265342,575.8828125,59.10691893265342C607.8806817533653,59.10691893265342,639.8785510067306,69.74268679826302,671.8764202600959,70.15650359715399C703.8655301733972,70.57020711468746,735.8546400866986,70.67363299407084,767.84375,70.77705887345421"/></g><g class="series"><clipPath id="clip-0-1"><rect width="767.84375" x="0" y="0.6999999999999997" height="485.50234375"/></clipPath><path class="line" opacity="1" pointer-events="none" fill="none" stroke="#d6614f" stroke-width="2.8000000000000003" transform="translate(3.5,0)" clip-path="url(#clip-0-1)" clip-path-id="0-1" d="M0,245.97543331676053C31.997869253365277,232.32189717994214,63.99573850673055,218.66836104312378,95.99360776009583,206.60844747177734C127.98271767339722,194.55183527288403,159.97182758669862,173.62411124344587,191.9609375,173.62411124344587C223.95880675336528,173.62411124344587,255.95667600673053,199.13357076594306,287.9545452600958,199.13357076594306C319.9436551733972,199.13357076594306,351.9327650866986,151.34669832046418,383.921875,127.45816666878065C415.91974425336525,103.56309379813446,447.91761350673056,73.80858563710622,479.9154827600958,55.78276257161823C511.9045926733972,37.7618740320173,543.8937025866986,19.3083983872098,575.8828125,19.3083983872098C607.8806817533653,19.3083983872098,639.8785510067306,21.03886199067145,671.8764202600959,24.077669593334203C703.8655301733972,27.11564532969456,735.8546400866986,32.3260070075314,767.84375,37.53636868536825"/></g><g class="series"><clipPath id="clip-0-2"><rect width="767.84375" x="0" y="0.6999999999999997" height="485.50234375"/></clipPath><path class="line" opacity="1" pointer-events="none" fill="none" stroke="#a15517" stroke-width="2.8000000000000003" transform="translate(3.5,0)" clip-path="url(#clip-0-2)" clip-path-id="0-2" d="M0,338.22180277151506C31.997869253365277,299.72356775418524,63.99573850673055,261.2253327368554,95.99360776009583,261.2253327368554C127.98271767339722,261.2253327368554,159.97182758669862,276.9315238726406,191.9609375,285.2461789972684C223.95880675336528,293.5631108620727,255.95667600673053,311.12059931604915,287.9545452600958,311.12059931604915C319.9436551733972,311.12059931604915,351.9327650866986,291.9999787285629,383.921875,282.44163086587054C415.91974425336525,272.8806657118686,447.91761350673056,263.8946011528986,479.9154827600958,253.76266241569198C511.9045926733972,243.63349727244577,543.8937025866986,221.6592590617801,575.8828125,221.6592590617801C607.8806817533653,221.6592590617801,639.8785510067306,236.27217198427206,671.8764202600959,251.4017539043582C703.8655301733972,266.5271941376335,735.8546400866986,289.47147729228493,767.84375,312.4157604469364"/></g></g><g id="data-points"><g class="series" transform="translate(3.5,0)" clip-path="url(#facet-clip-0)"/><g class="series" transform="translate(3.5,0)" clip-path="url(#facet-clip-0)"/><g class="series" transform="translate(3.5,0)" clip-path="url(#facet-clip-0)"/></g><g id="lines-secondary"/><g id="data-points-secondary"/><g id="axes-highlights"><g class="axis-highlights-facet"><g class="axis-highlights" transform="translate(3.5, 0)" style="opacity: 1;"/><defs><pattern id="fl-pattern-diagonal-x" width="4" height="4" patternUnits="userSpaceOnUse"><path d="M 0,4 l 4,-4 M -1,1 l 2,-2 M 3,5 l 2,-2" stroke-width="1" shape-rendering="auto" stroke-linecap="square" style="stroke: rgb(85, 85, 85);"/></pattern><pattern id="fl-pattern-dots-x" width="5" height="5" patternUnits="userSpaceOnUse"><circle cx="2.5" cy="2.5" r="1" stroke-width="1" shape-rendering="auto" style="fill: rgb(85, 85, 85);"/></pattern><pattern id="fl-pattern-grid-x" width="4" height="4" patternUnits="userSpaceOnUse"><path d="M 2, 0 l 0, 4" stroke-width="1" shape-rendering="auto" stroke-linecap="square" style="stroke: rgb(85, 85, 85);"/><path d="M 0,2 l 4,0" stroke-width="1" shape-rendering="auto" stroke-linecap="square" style="stroke: rgb(85, 85, 85);"/></pattern><pattern id="fl-pattern-diagonal-y" width="4" height="4" patternUnits="userSpaceOnUse"><path d="M 0,4 l 4,-4 M -1,1 l 2,-2 M 3,5 l 2,-2" stroke-width="1" shape-rendering="auto" stroke-linecap="square" style="stroke: rgb(85, 85, 85);"/></pattern><pattern id="fl-pattern-grid-y" width="4" height="4" patternUnits="userSpaceOnUse"><path d="M 2, 0 l 0, 4" stroke-width="1" shape-rendering="auto" stroke-linecap="square" style="stroke: rgb(85, 85, 85);"/><path d="M 0,2 l 4,0" stroke-width="1" shape-rendering="auto" stroke-linecap="square" style="stroke: rgb(85, 85, 85);"/></pattern><pattern id="fl-pattern-dots-y" width="5" height="5" patternUnits="userSpaceOnUse"><circle cx="2.5" cy="2.5" r="1" stroke-width="1" shape-rendering="auto" style="fill: rgb(85, 85, 85);"/></pattern></defs></g></g><g id="data-point-labels"><g class="series" transform="translate(3.5,0)" clip-path="url(#facet-clip-0)"/><g class="series" transform="translate(3.5,0)" clip-path="url(#facet-clip-0)"/><g class="series" transform="translate(3.5,0)" clip-path="url(#facet-clip-0)"/></g><g id="stack-labels"/><g class="annotations above"/></svg>